<svg width="38" height="38" viewBox="0 0 38 38" fill="none" xmlns="http://www.w3.org/2000/svg">
<path d="M37 19.0003C37.0001 15.2393 35.822 11.5727 33.6313 8.5155C31.4406 5.45833 28.3473 3.16417 24.7858 1.95523C21.2244 0.746298 17.3737 0.683324 13.7746 1.77516C10.1755 2.86699 7.00885 5.05878 4.71935 8.04268C2.42984 11.0266 1.13253 14.6527 1.00962 18.4117C0.886705 22.1708 1.94436 25.8739 4.03405 29.001C6.12373 32.1281 9.14046 34.5221 12.6605 35.8467C16.1806 37.1713 20.0272 37.36 23.66 36.3863" stroke="#D98CA1" stroke-width="2" stroke-linecap="round"/>
<path d="M19 27.0004C23.4183 27.0004 27 23.4187 27 19.0004C27 14.5821 23.4183 11.0004 19 11.0004C14.5817 11.0004 11 14.5821 11 19.0004C11 23.4187 14.5817 27.0004 19 27.0004Z" stroke="#D98CA1" stroke-width="2"/>
<path d="M27 13.0004V22.0004C27 23.3264 27.5268 24.5982 28.4645 25.5359C29.4021 26.4736 30.6739 27.0004 32 27.0004C33.3261 27.0004 34.5979 26.4736 35.5355 25.5359C36.4732 24.5982 37 23.3264 37 22.0004V19.0004" stroke="#D98CA1" stroke-width="2" stroke-linecap="round"/>
</svg>
