<svg width="36" height="32" viewBox="0 0 36 32" fill="none" xmlns="http://www.w3.org/2000/svg">
<path d="M17.9752 21.68L23.3786 27.8234C25.3786 30.0984 26.3802 31.2367 27.4286 30.9584C28.4752 30.6817 28.8352 29.185 29.5536 26.19L33.5369 9.57668C34.6452 4.96335 35.1986 2.65835 33.9686 1.52001C32.7386 0.381681 30.6069 1.22835 26.3436 2.92001L6.56689 10.775C3.15689 12.13 1.45189 12.8067 1.34355 13.97C1.33079 14.0886 1.33079 14.2081 1.34355 14.3267C1.44855 15.4917 3.15022 16.1733 6.55689 17.5383C8.09855 18.1567 8.87022 18.4667 9.42355 19.0583C9.48578 19.125 9.54577 19.1939 9.60355 19.265C10.1136 19.8983 10.3302 20.7317 10.7652 22.3917L11.5802 25.5033C12.0019 27.12 12.2136 27.93 12.7686 28.04C13.3236 28.15 13.8052 27.48 14.7702 26.1383L17.9752 21.68ZM17.9752 21.68L17.4469 21.13C16.8436 20.5 16.5419 20.1867 16.5419 19.7967C16.5419 19.4067 16.8419 19.0917 17.4469 18.4633L23.4019 12.2567" stroke="#D98CA1" stroke-width="2" stroke-linecap="round" stroke-linejoin="round"/>
</svg>
