<svg width="60" height="30" viewBox="0 0 60 30" fill="none" xmlns="http://www.w3.org/2000/svg">
<path d="M3.6 28.36C2.56 28.08 1.44 27.52 1.32 26.76L0.84 23.84L1.16 23.76C2.48 26.24 4.32 28.8 7.56 28.8C11.32 28.8 13.12 27.16 13.12 23.08C13.16 15.48 2.16 13.2 2.16 5.2C2.16 1.8 4.44 0.439998 7 0.439998C8 0.439998 9 0.68 9.56 0.88C10.68 1.32 11.96 1.2 12.24 2.04L13.24 4.84L12.96 4.96C11.04 3.08 10.28 0.799998 7.04 0.759999C4.72 0.759999 3.36 1.56 3.36 4.36C3.36 12.48 14.36 14 14.36 22.88C14.36 26.56 11.56 29.24 7.56 29.2C6.32 29.2 4.76 28.72 3.6 28.36ZM18.7953 28.36C17.7553 28.08 16.6353 27.52 16.5153 26.76L16.0353 23.84L16.3553 23.76C17.6753 26.24 19.5153 28.8 22.7553 28.8C26.5153 28.8 28.3153 27.16 28.3153 23.08C28.3553 15.48 17.3553 13.2 17.3553 5.2C17.3553 1.8 19.6353 0.439998 22.1953 0.439998C23.1953 0.439998 24.1953 0.68 24.7553 0.88C25.8753 1.32 27.1553 1.2 27.4353 2.04L28.4353 4.84L28.1553 4.96C26.2353 3.08 25.4753 0.799998 22.2353 0.759999C19.9153 0.759999 18.5553 1.56 18.5553 4.36C18.5553 12.48 29.5553 14 29.5553 22.88C29.5553 26.56 26.7553 29.24 22.7553 29.2C21.5153 29.2 19.9553 28.72 18.7953 28.36ZM45.0931 0.279998C51.5731 0.279998 56.4131 3.36 58.2531 7C59.1731 8.84 59.6931 9.6 59.3731 10L57.7331 12.48L57.4931 12.2C57.9731 10.44 58.4931 8.96 58.2931 8.4C56.6931 4.04 52.0931 0.68 45.0931 0.68C37.1331 0.68 31.9331 6.72 31.8931 15C31.8531 23.4 37.0931 29.44 45.0531 29.44C53.4531 29.44 57.8531 25 58.9731 19.24H59.4531C58.2531 25.6 53.2131 29.84 45.0531 29.84C36.7331 29.84 30.2931 23.2 30.2931 15C30.2931 6.76 36.8531 0.279998 45.0931 0.279998Z" fill="#402B1F"/>
</svg>
